<?xml version="1.0" encoding="utf-8"?>
<!-- Generator: Adobe Illustrator 15.0.0, SVG Export Plug-In . SVG Version: 6.00 Build 0)  -->
<!DOCTYPE svg PUBLIC "-//W3C//DTD SVG 1.1//EN" "http://www.w3.org/Graphics/SVG/1.1/DTD/svg11.dtd">
<svg version="1.1" id="Layer_1" xmlns="http://www.w3.org/2000/svg" xmlns:xlink="http://www.w3.org/1999/xlink" x="0px" y="0px"
	 width="314px" height="341px" viewBox="0 0 314 341" enable-background="new 0 0 314 341" xml:space="preserve">
<path fill="#D03527" d="M312.231,58.299c11.25,156.25-52.59,237.41-154,281c-105.92-39.42-165.7-124.96-155-281
	c43.56-24.66,99.23-45.4,152-57c8.89-1.95,32.35,6.17,45,10C240.231,23.399,279.061,39.579,312.231,58.299z M271.231,165.299
	c0-6.67,0-13.33,0-20c-22.5-11.17-44.31-23.02-67-34c0,7.67,0,15.33,0,23c14.34,7,29.89,12.78,42,22c-14.78,5.891-27.22,14.11-42,20
	c0,7.33,0,14.67,0,22C227.741,188.479,248.461,175.858,271.231,165.299z M199.231,88.299c-6.33,0-12.67,0-19,0
	c-21.66,43-40.49,88.85-61,133c7,0,14,0,21,0C159.761,176.829,181.151,134.219,199.231,88.299z M111.231,198.299
	c0-7.33,0-14.67,0-22c-14.34-7-29.89-12.779-42-22c14.78-5.89,27.22-14.11,42-20c-0.66-7.34,1.32-17.32-1-23
	c-21.69,11.64-43.94,22.73-66,34c0,6.67,0,13.33,0,20C67.001,175.858,87.721,188.479,111.231,198.299z"/>
</svg>
