<?xml version="1.0" encoding="utf-8"?>
<!-- Generated by IcoMoon.io -->
<!DOCTYPE svg PUBLIC "-//W3C//DTD SVG 1.1//EN" "http://www.w3.org/Graphics/SVG/1.1/DTD/svg11.dtd">
<svg version="1.1" xmlns="http://www.w3.org/2000/svg" xmlns:xlink="http://www.w3.org/1999/xlink" width="60" height="60" viewBox="0 0 60 60">
<g id="icomoon-ignore">
	<line stroke-width="1" x1="" y1="" x2="" y2="" stroke="#449FDB" opacity=""></line>
</g>
	<path d="M15.438 44.494c0 1.585 1.341 2.378 4.024 2.378 2.348 0 3.521-0.823 3.521-2.469 0-1.555-1.28-2.332-3.84-2.332-2.469-0-3.704 0.807-3.704 2.423zM50.001 0h-40c-5.501 0-10.001 4.501-10.001 10.001v39.998c0 5.504 4.501 10.001 10.001 10.001h40c5.5 0 9.999-4.497 9.999-10.001v-39.998c0-5.501-4.499-10.001-9.999-10.001zM27.875 23.964c-0.427 0.153-1.036 0.32-1.829 0.503 0.244 0.701 0.366 1.357 0.366 1.966 0 1.951-0.587 3.65-1.76 5.098s-2.69 2.309-4.55 2.583c-1.219 0.183-1.829 0.839-1.829 1.966 0 0.396 0.198 0.793 0.594 1.189 0.518 0.579 1.28 0.945 2.286 1.098 4.359 0.67 6.538 2.484 6.538 5.441 0 4.725-2.82 7.088-8.459 7.088-2.317 0-4.222-0.412-5.715-1.235-1.89-1.036-2.835-2.667-2.835-4.893 0-2.561 1.418-4.313 4.252-5.258v-0.091c-1.036-0.64-1.554-1.615-1.554-2.926 0-1.707 0.488-2.774 1.463-3.201v-0.092c-0.975-0.335-1.844-1.098-2.606-2.287-0.853-1.28-1.28-2.652-1.28-4.115 0-2.195 0.778-4.024 2.332-5.487 1.494-1.372 3.277-2.058 5.35-2.058 1.494 0 2.88 0.366 4.161 1.097 1.463 0 3.155-0.366 5.076-1.097l-0.001 4.709zM35.284 39.785h-5.167c0.061-0.609 0.091-1.646 0.091-3.109v-14.22c0-1.433-0.031-2.424-0.091-2.972h5.167c-0.061 0.579-0.092 1.539-0.092 2.881v14.037c0 1.555 0.031 2.683 0.092 3.384zM34.941 14.911c-0.625 0.671-1.364 1.006-2.218 1.006-0.884 0-1.638-0.335-2.263-1.006s-0.938-1.463-0.938-2.378c0-0.945 0.313-1.753 0.938-2.424s1.379-1.006 2.263-1.006c0.853 0 1.593 0.336 2.218 1.006s0.937 1.478 0.937 2.424c0 0.914-0.312 1.707-0.937 2.378zM49.318 39.19c-1.128 0.61-2.485 0.914-4.070 0.914-2.225 0-3.765-0.792-4.618-2.377-0.64-1.189-0.96-3.063-0.96-5.624v-8.185h0.046v-0.092l-0.686-0.046c-0.396 0-0.915 0.046-1.555 0.137v-4.435h2.24v-1.783c0-0.854-0.046-1.54-0.137-2.058h5.304c-0.091 0.579-0.137 1.234-0.137 1.966v1.875h3.978v4.435c-0.152 0-0.434-0.015-0.846-0.046s-0.8-0.046-1.166-0.046h-1.966v8.505c0 2.043 0.671 3.064 2.012 3.064 0.945 0 1.799-0.259 2.561-0.777v4.572zM18.821 23.461c-1.92 0-2.881 1.128-2.881 3.384 0 2.104 0.96 3.155 2.881 3.155 1.86 0 2.789-1.067 2.789-3.201 0-0.884-0.213-1.646-0.64-2.286-0.518-0.701-1.235-1.052-2.149-1.052z" fill="#000000"></path>
</svg>
