<?xml version="1.0" encoding="utf-8"?>
<!-- Generated by IcoMoon.io -->
<!DOCTYPE svg PUBLIC "-//W3C//DTD SVG 1.1//EN" "http://www.w3.org/Graphics/SVG/1.1/DTD/svg11.dtd">
<svg version="1.1" xmlns="http://www.w3.org/2000/svg" xmlns:xlink="http://www.w3.org/1999/xlink" width="60" height="60" viewBox="0 0 60 60">
<g id="icomoon-ignore">
	<line stroke-width="1" x1="" y1="" x2="" y2="" stroke="#449FDB" opacity=""></line>
</g>
	<path d="M49.922 0h-39.844c-5.543 0-10.078 4.535-10.078 10.078v39.844c0 5.543 4.535 10.078 10.078 10.078h39.844c5.543 0 10.078-4.535 10.078-10.078v-39.844c0-5.543-4.535-10.078-10.078-10.078zM22.5 48.75h-7.5v-26.25h7.5v26.25zM18.75 18.75c-2.071 0-3.75-1.679-3.75-3.75s1.679-3.75 3.75-3.75 3.75 1.679 3.75 3.75-1.679 3.75-3.75 3.75zM48.75 48.75h-7.5v-15c0-2.071-1.679-3.75-3.75-3.75s-3.75 1.679-3.75 3.75v15h-7.5v-26.25h7.5v4.657c1.547-2.125 3.911-4.657 6.563-4.657 4.66 0 8.438 4.197 8.438 9.375v16.875z" fill="#000000"></path>
</svg>
