<?xml version="1.0" encoding="utf-8"?>
<!-- Generated by IcoMoon.io -->
<!DOCTYPE svg PUBLIC "-//W3C//DTD SVG 1.1//EN" "http://www.w3.org/Graphics/SVG/1.1/DTD/svg11.dtd">
<svg version="1.1" xmlns="http://www.w3.org/2000/svg" xmlns:xlink="http://www.w3.org/1999/xlink" width="60" height="60" viewBox="0 0 60 60">
<g id="icomoon-ignore">
	<line stroke-width="1" x1="" y1="" x2="" y2="" stroke="#449FDB" opacity=""></line>
</g>
	<path d="M50.001 0h-39.999c-5.5 0-10.001 4.501-10.001 10.001v39.997c0 5.504 4.501 10.001 10.001 10.001h39.999c5.501 0 9.999-4.497 9.999-10.001v-39.997c0-5.501-4.499-10.001-9.999-10.001zM49.105 20.029c0.019 0.43 0.029 0.863 0.029 1.298 0 13.255-9.915 28.539-28.046 28.539-5.567 0-10.748-1.661-15.111-4.507 0.771 0.093 1.556 0.14 2.351 0.14 4.618 0 8.869-1.604 12.242-4.294-4.313-0.081-7.954-2.981-9.208-6.966 0.602 0.117 1.219 0.18 1.855 0.18 0.899 0 1.77-0.123 2.597-0.352-4.509-0.922-7.907-4.976-7.907-9.835 0-0.042 0-0.084 0.001-0.126 1.329 0.751 2.849 1.202 4.465 1.254-2.645-1.799-4.385-4.869-4.385-8.349 0-1.838 0.486-3.561 1.335-5.042 4.862 6.069 12.125 10.062 20.318 10.48-0.168-0.734-0.255-1.5-0.255-2.286 0-5.539 4.414-10.030 9.857-10.030 2.835 0 5.398 1.218 7.195 3.167 2.245-0.45 4.355-1.284 6.26-2.434-0.736 2.342-2.299 4.308-4.334 5.549 1.994-0.242 3.894-0.782 5.661-1.579-1.321 2.011-2.992 3.778-4.919 5.192z" fill="#000000"></path>
</svg>
